<?xml version="1.0" encoding="utf-8"?>
<!-- Generator: Adobe Illustrator 22.1.0, SVG Export Plug-In . SVG Version: 6.00 Build 0)  -->
<svg version="1.1" id="Layer_1" xmlns="http://www.w3.org/2000/svg" xmlns:xlink="http://www.w3.org/1999/xlink" x="0px" y="0px"
	 viewBox="0 0 40 40" style="enable-background:new 0 0 40 40;" xml:space="preserve">
<style type="text/css">
	.st0{fill:#FF7C00;}
	.st1{fill:#261300;}
</style>
<g id="Layer_x0020_1">
	<rect class="st0" width="40" height="40"/>
	<rect x="1.8" y="1.8" class="st1" width="36.5" height="36.5"/>
	<g id="_1927324032">
		<path class="st0" d="M26.9,16h3.2c0.1,0,0.2,0.1,0.2,0.2v13c0,0.1-0.1,0.2-0.2,0.2h-3.2c-0.1,0-0.2-0.1-0.2-0.2v-13
			C26.8,16.1,26.8,16,26.9,16z"/>
		<ellipse class="st0" cx="28.5" cy="12.5" rx="1.8" ry="1.8"/>
	</g>
	<path class="st0" d="M19.9,24.7l1.3,4.3c0.1,0.3,0.2,0.3,0.4,0.3h3.3c0.3,0,0.2-0.1,0.2-0.2l-5.5-18.4c0,0,0-0.1-0.1-0.1H15
		L9.8,29.1c-0.1,0.2,0,0.2,0.2,0.2h3.2c0.3,0,0.4-0.1,0.4-0.3l1.1-4.4L19.9,24.7L19.9,24.7z M19.2,21.3h-3.8l1.9-7.5L19.2,21.3z"/>
</g>
</svg>
