<?xml version="1.0" encoding="utf-8"?>
<!-- Generator: Adobe Illustrator 22.1.0, SVG Export Plug-In . SVG Version: 6.00 Build 0)  -->
<svg version="1.1" id="Layer_1" xmlns="http://www.w3.org/2000/svg" xmlns:xlink="http://www.w3.org/1999/xlink" x="0px" y="0px"
	 viewBox="0 0 40 40" style="enable-background:new 0 0 40 40;" xml:space="preserve">
<style type="text/css">
	.st0{fill:#E44F26;}
	.st1{fill:#F1662A;}
	.st2{fill:#EBEBEB;}
	.st3{fill:#FFFFFF;}
</style>
<title>file_type_html</title>
<g>
	<polygon class="st0" points="5.6,36 2.4,0 37.6,0 34.4,36 20,40 	"/>
	<polygon class="st1" points="20,37 31.7,33.7 34.4,2.9 20,2.9 	"/>
	<polygon class="st2" points="20,16.3 14.1,16.3 13.7,11.8 20,11.8 20,7.3 20,7.3 8.9,7.3 9,8.6 10.2,20.7 20,20.7 	"/>
	<polygon class="st2" points="20,27.8 20,27.8 15.1,26.4 14.8,23 12.3,23 10.4,23 10.9,29.8 20,32.4 20,32.4 	"/>
	<polygon class="st3" points="20,16.3 20,20.7 25.4,20.7 24.9,26.4 20,27.8 20,32.4 29.1,29.8 29.1,29.1 30.1,17.5 30.3,16.3 
		29.1,16.3 	"/>
	<polygon class="st3" points="20,7.3 20,10.1 20,11.8 20,11.8 30.7,11.8 30.7,11.8 30.7,11.8 30.8,10.8 31,8.6 31.1,7.3 	"/>
</g>
</svg>
