<?xml version="1.0" encoding="utf-8"?>
<!-- Generator: Adobe Illustrator 22.1.0, SVG Export Plug-In . SVG Version: 6.00 Build 0)  -->
<svg version="1.1" id="Layer_1" xmlns="http://www.w3.org/2000/svg" xmlns:xlink="http://www.w3.org/1999/xlink" x="0px" y="0px"
	 viewBox="0 0 40 40" style="enable-background:new 0 0 40 40;" xml:space="preserve">
<style type="text/css">
	.st0{fill:#D9A630;}
	.st1{fill:#FBCB5A;}
	.st2{fill:#E6E6E6;}
	.st3{fill:#FFFFFF;}
</style>
<title>file_type_css</title>
<g>
	<polygon class="st0" points="20,0 1.1,0 5.2,36.1 20,40 34.8,36.1 38.9,0 	"/>
	<polygon class="st1" points="20,3.3 20,36.6 31.8,33.4 35.1,3.3 	"/>
	<polygon class="st2" points="19,6.7 15.2,6.7 15.2,27.4 10.8,26.2 11.3,30.8 15.2,31.8 19,32.9 	"/>
	<polygon class="st3" points="26.6,10.9 30.9,10.9 31.4,6.7 24.8,6.7 21,6.7 21,20.5 21.7,20.5 21.7,20.6 24.8,20.6 25.6,20.6 
		24.8,27.4 24.8,27.4 21,28.4 21,32.9 24.8,31.8 28.7,30.8 29.9,20.6 30.3,16.3 26,16.3 24.8,16.3 24.8,10.9 	"/>
</g>
</svg>
