<?xml version="1.0" encoding="utf-8"?>
<!-- Generator: Adobe Illustrator 22.1.0, SVG Export Plug-In . SVG Version: 6.00 Build 0)  -->
<svg version="1.1" id="Layer_1" xmlns="http://www.w3.org/2000/svg" xmlns:xlink="http://www.w3.org/1999/xlink" x="0px" y="0px"
	 viewBox="0 0 40 40" style="enable-background:new 0 0 40 40;" xml:space="preserve">
<style type="text/css">
	.st0{fill:#0C0824;}
	.st1{fill:#31C5F0;}
</style>
<title>file_type_photoshop</title>
<g>
	<path class="st0" d="M1.7,1.7h36.6v36.6H1.7V1.7z"/>
	<path class="st1" d="M1.7,1.7h36.6v36.6H1.7V1.7z M0,40h40V0H0V40z M27.2,16.4c-1.3,0-1.8,0.7-1.8,1.2c0,0.7,0.3,1,2.2,2
		c2.7,1.3,3.5,2.5,3.5,4.4c0,2.7-2.1,4.2-4.9,4.2c-1.2,0-2.4-0.2-3.5-0.8c-0.1-0.1-0.1-0.1-0.1-0.3v-2.5c0-0.2,0.1-0.2,0.2-0.1
		c1,0.7,2.3,1,3.5,1c1.3,0,1.9-0.6,1.9-1.3c0-0.7-0.4-1.1-2.2-2.1c-2.4-1.1-3.5-2.3-3.5-4.3c0-2.2,1.7-4,4.7-4c1,0,2.1,0.1,3.1,0.5
		c0.1,0.1,0.2,0.2,0.2,0.4v2.3c0,0.1-0.1,0.2-0.3,0.2C29.2,16.7,28.2,16.4,27.2,16.4L27.2,16.4z M12.4,18.5c0.4,0,0.7,0,1.4,0
		c2,0,3.9-0.7,3.9-3.4c0-2.2-1.3-3.3-3.7-3.3c-0.7,0-1.3,0-1.6,0.1V18.5z M9.4,9.4c0-0.1,0.3-0.2,0.4-0.2c1.1-0.1,2.7-0.1,4.4-0.1
		c4.7,0,6.6,2.6,6.6,5.9c0,4.3-3.1,6.2-7,6.2c-0.7,0-0.8,0-1.3,0v6.6c0,0.1-0.1,0.2-0.2,0.2H9.7c-0.1,0-0.2-0.1-0.2-0.2L9.4,9.4
		L9.4,9.4z"/>
</g>
</svg>
