<?xml version="1.0" encoding="utf-8"?>
<!-- Generator: Adobe Illustrator 22.1.0, SVG Export Plug-In . SVG Version: 6.00 Build 0)  -->
<svg version="1.1" id="Layer_1" xmlns="http://www.w3.org/2000/svg" xmlns:xlink="http://www.w3.org/1999/xlink" x="0px" y="0px"
	 viewBox="0 0 40 40" style="enable-background:new 0 0 40 40;" xml:space="preserve">
<style type="text/css">
	.st0{fill:#0868AC;}
</style>
<path class="st0" d="M14.7,25.3c0.8,0.5,1.7,0.8,2.6,1.1c0.7,0.2,1.4,0.3,2,0.4c1.2,0.1,2.5,0.1,3.7,0c1.9-0.2,3.8-0.8,5.4-1.9
	c1.2-0.8,2.3-1.8,3.2-2.9c0.5-0.7,1-1.5,1.4-2.3c0.1-0.1,0.1-0.2,0.1-0.3c-0.1,0.3-0.4,0.5-0.6,0.7c-0.2,0.2-0.5,0.5-0.7,0.7
	c-0.5,0.4-1,0.8-1.6,1.1c-1.1,0.7-2.4,1.1-3.7,1.3c-3.1,0.6-6.3,0.2-9.2-1.2c-0.9-0.4-1.8-1-2.6-1.6c-0.2-0.1-0.3-0.2-0.5-0.4
	c-1.1-0.9-2.1-1.9-3-3c-3-4-4-9.1-1.8-13.3l-2,2.5c-2.5,3.6-2.2,8.2-0.3,12c0.6,1.2,1.4,2.2,2.2,3.2c1,1.2,2.3,2.2,3.6,3
	C13.7,24.7,14.2,25.1,14.7,25.3z M15.9,13.3c1.8,2.4,4.3,4.1,7.2,4.6c0.6,0.1,1.2,0.1,1.8,0.1c2.1,0,4.2-0.6,5.9-1.8
	c1.1-0.8,1.9-1.8,2.6-3c0.2-0.3,0.3-0.6,0.4-0.9c-0.1,0.2-0.4,0.5-0.6,0.7c-0.2,0.2-0.4,0.5-0.7,0.7c-0.5,0.4-1,0.8-1.6,1.1
	c-1.2,0.6-2.5,0.9-3.9,1c-2.9,0.1-5.7-1-7.8-3.1c-1.3-1.3-2.4-2.9-3-4.7c-0.7-2.2-0.6-4.7,0.7-6.7l-1.5,2.1
	c-1.8,2.6-1.7,6.1-0.3,8.8C15.3,12.5,15.6,13,15.9,13.3z M26.2,10.3c0.6,0.2,1.3,0.2,1.9,0.2c0.6,0,1.3-0.1,1.9-0.4
	c0.5-0.2,0.9-0.4,1.4-0.8C31.7,9,32,8.7,32.3,8.4c0.2-0.3,0.4-0.5,0.6-0.8c0.1-0.1,0.2-0.3,0.3-0.4c-1.2,1.8-3.3,2.2-5.8,1.6
	c-0.4-0.1-0.9-0.3-1.2-0.5c-0.5-0.2-0.9-0.5-1.2-0.8c-2.3-1.7-3.7-4.9-2.2-7.6l-0.8,1.1c-1,1.5-1.1,3.5-0.5,5.2
	c0.8,1.7,2.4,3.1,4.2,3.8C25.8,10.2,26,10.2,26.2,10.3z M20.7,31.1h-1.4c-0.1,0-0.2,0.1-0.2,0.1l-0.5,2.3l-0.5,2.4
	c0,0.1-0.1,0.1-0.2,0.1H17c-0.9,0-0.9-0.7-0.7-1.6l0,0l0.2-0.9l0.2-1.1l0.2-1.1c0-0.1,0-0.1-0.1-0.1h-1.4c-0.1,0-0.2,0.1-0.2,0.1
	l-0.3,1.4L14.7,34c-0.4,1.6-0.3,3.1,1.7,3.2h0.1h3c0.1,0,0.2-0.1,0.2-0.1l0.7-3l0.7-3C20.9,31.1,20.8,31.1,20.7,31.1z M5.7,31.1H4.3
	c-0.1,0-0.2,0.1-0.2,0.1L4,31.9l-0.2,0.7c0,0.1,0,0.1,0.1,0.1h1.5c0.1,0,0.2-0.1,0.2-0.1l0.1-0.7L5.7,31.1
	C5.8,31.2,5.8,31.1,5.7,31.1z M5.4,33.1H3.9c-0.1,0-0.2,0.1-0.2,0.1l-0.2,0.9c0,0-0.7,3.3-0.8,3.5c0,0-0.3,0.9-0.8,0.9H1.9H1.5l0,0
	c-0.1,0-0.2,0.1-0.2,0.1l-0.2,0.7l-0.2,0.7C0.9,40,0.9,40,1,40c0.3,0,0.9,0,1.2,0c1.2,0,1.8-0.7,2.3-2.6L5,35.3L5.4,33.1
	C5.5,33.2,5.5,33.1,5.4,33.1z M33.6,32.4C33.6,32.4,33.6,32.4,33.6,32.4c0-0.2,0-0.3-0.1-0.5c-0.1-0.5-0.5-0.8-1.3-0.8H31h-1.1h-1.3
	c-0.1,0-0.2,0.1-0.2,0.1L28.3,32l-0.6,2.7c0,0-0.6,2.6-0.6,2.6c0,0.1,0,0.2,0,0.2c0.1,0.1,0.2,0.1,0.4,0.1c0.1,0,0.3,0,0.4,0
	c0.2,0,0.3,0,0.5,0c0.2,0,0.3-0.4,0.3-0.5c0-0.2,0.1-0.5,0.1-0.7c0.1-0.6,0.2-1.2,0.4-1.8c0-0.2,0.1-0.4,0.1-0.6l0.2-1
	c0-0.1,0.1-0.1,0.2-0.1c0,0,3.7,0,3.7,0C33.6,32.7,33.6,32.6,33.6,32.4z M38.4,30.2h-0.3H37c-0.1,0-0.2,0.1-0.2,0.1L34.2,34
	c0,0.1-0.1,0.1-0.1,0l-0.2-0.9c0-0.1-0.1-0.1-0.2-0.1h-1.7c-0.1,0-0.1,0.1-0.1,0.1l0.8,2.6c0,0.1,0,0.2,0,0.3l-0.3,1.2
	c0,0.1,0,0.1,0.1,0.1h1.6c0.1,0,0.2-0.1,0.2-0.1l0.3-1.2c0-0.1,0.1-0.2,0.1-0.3l4.2-5.6c0-0.1,0-0.1-0.1-0.1L38.4,30.2z M25.2,33.5
	L25.2,33.5c0,0.1-0.1,0.2-0.2,0.2H23c-0.1,0-0.1-0.1-0.1-0.1l0,0l0,0l0,0l0,0c0.2-0.6,0.6-0.9,1.4-0.9C25.2,32.8,25.2,33,25.2,33.5z
	 M24.6,31c-2.7,0-3.3,1.6-3.7,3.3c-0.4,1.7-0.3,3.2,2.5,3.2h0.4h0.1h0.4c0.8,0,1.5,0,1.8,0c0.2,0,0.2-0.1,0.2-0.3
	c0-0.1,0-0.3,0.1-0.4c0-0.2,0.1-0.5,0.1-0.7c0,0,0,0,0,0c0-0.1,0-0.1-0.1-0.1h-2.6c-1,0-1.3-0.3-1.2-1h4c0.1,0,0.1,0,0.2-0.1
	C27.3,32.5,27.1,31,24.6,31z M11.8,33.5l-0.3,1.1l-0.3,1.1c0,0.1-0.1,0.1-0.2,0.1H9.5c-1.2,0-1.5-0.9-1.2-2.4
	c0.3-1.4,0.9-2.3,2.1-2.4C11.9,31,12.3,32.2,11.8,33.5z M12.9,35.8c0,0,0.8-1.8,0.9-2.9c0.2-1.4-0.5-3.5-3.2-3.5s-3.9,2-4.3,4.1
	c-0.5,2.2,0.1,4.1,2.8,4.1h2.2h2c0.1,0,0.2-0.1,0.2-0.1l0.4-1.3c0-0.1,0-0.1-0.1-0.1h-0.4H13C12.9,35.9,12.9,35.8,12.9,35.8
	L12.9,35.8z"/>
</svg>
