<?xml version="1.0" encoding="utf-8"?>
<!-- Generator: Adobe Illustrator 22.1.0, SVG Export Plug-In . SVG Version: 6.00 Build 0)  -->
<svg version="1.1" id="Layer_1" xmlns="http://www.w3.org/2000/svg" xmlns:xlink="http://www.w3.org/1999/xlink" x="0px" y="0px"
	 viewBox="0 0 40 40" style="enable-background:new 0 0 40 40;" xml:space="preserve">
<style type="text/css">
	.st0{fill:#1572B6;}
	.st1{fill:#33A9DC;}
	.st2{fill:#FFFFFF;}
	.st3{fill:#EBEBEB;}
</style>
<title>file_type_css</title>
<g>
	<polygon class="st0" points="5.6,36 2.4,0 37.6,0 34.4,36 20,40 	"/>
	<polygon class="st1" points="20,37 31.7,33.7 34.4,2.9 20,2.9 	"/>
	<polygon class="st2" points="20,16 25.9,16 26.3,11.5 20,11.5 20,7.1 20,7.1 31.1,7.1 31,8.3 29.9,20.4 20,20.4 	"/>
	<polygon class="st3" points="20,27.5 20,27.5 15.1,26.2 14.8,22.6 12.4,22.6 10.4,22.6 11,29.6 20,32.1 20,32.1 	"/>
	<polygon class="st2" points="25.5,20.2 24.9,26.2 20,27.5 20,32.1 29.1,29.6 29.2,28.8 29.9,20.2 	"/>
	<polygon class="st3" points="20,7.1 20,9.8 20,11.5 20,11.5 9.4,11.5 9.4,11.5 9.3,11.5 9.2,10.4 9,8.3 8.9,7.1 	"/>
	<polygon class="st3" points="20,16 20,18.7 20,20.4 20,20.4 15.2,20.4 15.2,20.4 15.2,20.4 15.1,19.4 14.9,17.2 14.8,16 	"/>
</g>
</svg>
